<mxfile host="app.diagrams.net" modified="2022-03-23T02:51:38.382Z" agent="5.0 (Windows NT 10.0; Win64; x64) AppleWebKit/537.36 (KHTML, like Gecko) Chrome/99.0.4841.0 Safari/537.36" etag="bY-YspKn0pf0-dndfXGT" version="17.1.5" type="github">
  <diagram id="T-z73qjj3EYtQLlv2BbI" name="第 1 页">
    <mxGraphModel dx="1240" dy="643" grid="0" gridSize="10" guides="1" tooltips="1" connect="1" arrows="1" fold="1" page="0" pageScale="1" pageWidth="980" pageHeight="1390" math="0" shadow="0">
      <root>
        <mxCell id="0" />
        <mxCell id="1" parent="0" />
        <mxCell id="6sAhm8Tma2SEbeLi_Sfp-47" value="Pod" style="rounded=1;whiteSpace=wrap;html=1;fontSize=19;strokeColor=#080808;rotation=90;horizontal=0;" vertex="1" parent="1">
          <mxGeometry x="255" y="364" width="210" height="80" as="geometry" />
        </mxCell>
        <mxCell id="6sAhm8Tma2SEbeLi_Sfp-46" value="IC Pod" style="rounded=1;whiteSpace=wrap;html=1;fontSize=19;strokeColor=#080808;rotation=90;horizontal=0;" vertex="1" parent="1">
          <mxGeometry x="575" y="125" width="210" height="78" as="geometry" />
        </mxCell>
        <mxCell id="6sAhm8Tma2SEbeLi_Sfp-45" value="&lt;font style=&quot;font-size: 15px&quot;&gt;NodePort&lt;/font&gt;" style="rounded=1;whiteSpace=wrap;html=1;fontSize=19;strokeColor=#080808;rotation=90;textDirection=rtl;horizontal=0;" vertex="1" parent="1">
          <mxGeometry x="275" y="124" width="210" height="80" as="geometry" />
        </mxCell>
        <mxCell id="6sAhm8Tma2SEbeLi_Sfp-44" value="" style="rounded=1;whiteSpace=wrap;html=1;fontSize=19;strokeColor=#080808;rotation=90;" vertex="1" parent="1">
          <mxGeometry x="-39.37" y="125" width="208.75" height="80" as="geometry" />
        </mxCell>
        <mxCell id="6sAhm8Tma2SEbeLi_Sfp-3" value="" style="sketch=0;html=1;dashed=0;whitespace=wrap;fillColor=#2875E2;strokeColor=#ffffff;points=[[0.005,0.63,0],[0.1,0.2,0],[0.9,0.2,0],[0.5,0,0],[0.995,0.63,0],[0.72,0.99,0],[0.5,1,0],[0.28,0.99,0]];shape=mxgraph.kubernetes.icon;prIcon=user" vertex="1" parent="1">
          <mxGeometry x="40" y="65" width="50" height="50" as="geometry" />
        </mxCell>
        <mxCell id="6sAhm8Tma2SEbeLi_Sfp-4" value="" style="sketch=0;aspect=fixed;html=1;points=[];align=center;image;fontSize=12;image=img/lib/mscae/Application_Gateway.svg;rotation=-90;" vertex="1" parent="1">
          <mxGeometry x="190" y="130" width="70" height="70" as="geometry" />
        </mxCell>
        <mxCell id="6sAhm8Tma2SEbeLi_Sfp-5" value="" style="sketch=0;html=1;dashed=0;whitespace=wrap;fillColor=#2875E2;strokeColor=#ffffff;points=[[0.005,0.63,0],[0.1,0.2,0],[0.9,0.2,0],[0.5,0,0],[0.995,0.63,0],[0.72,0.99,0],[0.5,1,0],[0.28,0.99,0]];shape=mxgraph.kubernetes.icon;prIcon=user" vertex="1" parent="1">
          <mxGeometry x="40" y="140" width="50" height="50" as="geometry" />
        </mxCell>
        <mxCell id="6sAhm8Tma2SEbeLi_Sfp-6" value="" style="sketch=0;html=1;dashed=0;whitespace=wrap;fillColor=#2875E2;strokeColor=#ffffff;points=[[0.005,0.63,0],[0.1,0.2,0],[0.9,0.2,0],[0.5,0,0],[0.995,0.63,0],[0.72,0.99,0],[0.5,1,0],[0.28,0.99,0]];shape=mxgraph.kubernetes.icon;prIcon=user" vertex="1" parent="1">
          <mxGeometry x="40" y="215" width="50" height="50" as="geometry" />
        </mxCell>
        <mxCell id="6sAhm8Tma2SEbeLi_Sfp-7" value="&lt;font style=&quot;font-size: 19px;&quot;&gt;LB&lt;/font&gt;" style="text;html=1;align=center;verticalAlign=middle;resizable=0;points=[];autosize=1;strokeColor=none;fillColor=#FFFFFF;fontSize=19;" vertex="1" parent="1">
          <mxGeometry x="205" y="200" width="40" height="30" as="geometry" />
        </mxCell>
        <mxCell id="6sAhm8Tma2SEbeLi_Sfp-8" value="" style="sketch=0;html=1;dashed=0;whitespace=wrap;fillColor=#2875E2;strokeColor=#ffffff;points=[[0.005,0.63,0],[0.1,0.2,0],[0.9,0.2,0],[0.5,0,0],[0.995,0.63,0],[0.72,0.99,0],[0.5,1,0],[0.28,0.99,0]];shape=mxgraph.kubernetes.icon;prIcon=node;fontSize=19;" vertex="1" parent="1">
          <mxGeometry x="330" y="70" width="100" height="60" as="geometry" />
        </mxCell>
        <mxCell id="6sAhm8Tma2SEbeLi_Sfp-9" value="" style="sketch=0;html=1;dashed=0;whitespace=wrap;fillColor=#2875E2;strokeColor=#ffffff;points=[[0.005,0.63,0],[0.1,0.2,0],[0.9,0.2,0],[0.5,0,0],[0.995,0.63,0],[0.72,0.99,0],[0.5,1,0],[0.28,0.99,0]];shape=mxgraph.kubernetes.icon;prIcon=node;fontSize=19;" vertex="1" parent="1">
          <mxGeometry x="330" y="200" width="100" height="60" as="geometry" />
        </mxCell>
        <mxCell id="6sAhm8Tma2SEbeLi_Sfp-10" value="" style="sketch=0;html=1;dashed=0;whitespace=wrap;fillColor=#2875E2;strokeColor=#ffffff;points=[[0.005,0.63,0],[0.1,0.2,0],[0.9,0.2,0],[0.5,0,0],[0.995,0.63,0],[0.72,0.99,0],[0.5,1,0],[0.28,0.99,0]];shape=mxgraph.kubernetes.icon;prIcon=svc;fontSize=19;rotation=-90;horizontal=1;" vertex="1" parent="1">
          <mxGeometry x="480" y="115" width="70" height="89" as="geometry" />
        </mxCell>
        <mxCell id="6sAhm8Tma2SEbeLi_Sfp-11" value="" style="sketch=0;html=1;dashed=0;whitespace=wrap;fillColor=#2875E2;strokeColor=#ffffff;points=[[0.005,0.63,0],[0.1,0.2,0],[0.9,0.2,0],[0.5,0,0],[0.995,0.63,0],[0.72,0.99,0],[0.5,1,0],[0.28,0.99,0]];shape=mxgraph.kubernetes.icon;prIcon=pod;fontSize=19;" vertex="1" parent="1">
          <mxGeometry x="630" y="198" width="100" height="62" as="geometry" />
        </mxCell>
        <mxCell id="6sAhm8Tma2SEbeLi_Sfp-40" style="edgeStyle=orthogonalEdgeStyle;rounded=0;orthogonalLoop=1;jettySize=auto;html=1;entryX=0.175;entryY=0.631;entryDx=0;entryDy=0;entryPerimeter=0;fontSize=19;curved=1;" edge="1" parent="1" target="6sAhm8Tma2SEbeLi_Sfp-13">
          <mxGeometry relative="1" as="geometry">
            <mxPoint x="730" y="110" as="sourcePoint" />
            <Array as="points">
              <mxPoint x="830" y="109" />
              <mxPoint x="830" y="385" />
            </Array>
          </mxGeometry>
        </mxCell>
        <mxCell id="6sAhm8Tma2SEbeLi_Sfp-12" value="" style="sketch=0;html=1;dashed=0;whitespace=wrap;fillColor=#2875E2;strokeColor=#ffffff;points=[[0.005,0.63,0],[0.1,0.2,0],[0.9,0.2,0],[0.5,0,0],[0.995,0.63,0],[0.72,0.99,0],[0.5,1,0],[0.28,0.99,0]];shape=mxgraph.kubernetes.icon;prIcon=pod;fontSize=19;" vertex="1" parent="1">
          <mxGeometry x="630" y="70" width="100" height="62" as="geometry" />
        </mxCell>
        <mxCell id="6sAhm8Tma2SEbeLi_Sfp-13" value="" style="sketch=0;html=1;dashed=0;whitespace=wrap;fillColor=#2875E2;strokeColor=#ffffff;points=[[0.005,0.63,0],[0.1,0.2,0],[0.9,0.2,0],[0.5,0,0],[0.995,0.63,0],[0.72,0.99,0],[0.5,1,0],[0.28,0.99,0]];shape=mxgraph.kubernetes.icon;prIcon=ing;fontSize=19;rotation=-180;" vertex="1" parent="1">
          <mxGeometry x="620" y="360" width="120" height="68" as="geometry" />
        </mxCell>
        <mxCell id="6sAhm8Tma2SEbeLi_Sfp-14" value="" style="sketch=0;html=1;dashed=0;whitespace=wrap;fillColor=#2875E2;strokeColor=#ffffff;points=[[0.005,0.63,0],[0.1,0.2,0],[0.9,0.2,0],[0.5,0,0],[0.995,0.63,0],[0.72,0.99,0],[0.5,1,0],[0.28,0.99,0]];shape=mxgraph.kubernetes.icon;prIcon=svc;fontSize=19;rotation=90;" vertex="1" parent="1">
          <mxGeometry x="480" y="349.5" width="70" height="89" as="geometry" />
        </mxCell>
        <mxCell id="6sAhm8Tma2SEbeLi_Sfp-15" value="" style="sketch=0;html=1;dashed=0;whitespace=wrap;fillColor=#2875E2;strokeColor=#ffffff;points=[[0.005,0.63,0],[0.1,0.2,0],[0.9,0.2,0],[0.5,0,0],[0.995,0.63,0],[0.72,0.99,0],[0.5,1,0],[0.28,0.99,0]];shape=mxgraph.kubernetes.icon;prIcon=pod;fontSize=19;" vertex="1" parent="1">
          <mxGeometry x="630" y="198" width="100" height="62" as="geometry" />
        </mxCell>
        <mxCell id="6sAhm8Tma2SEbeLi_Sfp-16" value="" style="sketch=0;html=1;dashed=0;whitespace=wrap;fillColor=#2875E2;strokeColor=#ffffff;points=[[0.005,0.63,0],[0.1,0.2,0],[0.9,0.2,0],[0.5,0,0],[0.995,0.63,0],[0.72,0.99,0],[0.5,1,0],[0.28,0.99,0]];shape=mxgraph.kubernetes.icon;prIcon=pod;fontSize=19;" vertex="1" parent="1">
          <mxGeometry x="310" y="310" width="100" height="62" as="geometry" />
        </mxCell>
        <mxCell id="6sAhm8Tma2SEbeLi_Sfp-17" value="" style="sketch=0;html=1;dashed=0;whitespace=wrap;fillColor=#2875E2;strokeColor=#ffffff;points=[[0.005,0.63,0],[0.1,0.2,0],[0.9,0.2,0],[0.5,0,0],[0.995,0.63,0],[0.72,0.99,0],[0.5,1,0],[0.28,0.99,0]];shape=mxgraph.kubernetes.icon;prIcon=pod;fontSize=19;" vertex="1" parent="1">
          <mxGeometry x="310" y="438" width="100" height="62" as="geometry" />
        </mxCell>
        <mxCell id="6sAhm8Tma2SEbeLi_Sfp-30" value="" style="endArrow=classic;html=1;rounded=0;fontSize=19;" edge="1" parent="1" target="6sAhm8Tma2SEbeLi_Sfp-4">
          <mxGeometry width="50" height="50" relative="1" as="geometry">
            <mxPoint x="90" y="90" as="sourcePoint" />
            <mxPoint x="140" y="40" as="targetPoint" />
            <Array as="points" />
          </mxGeometry>
        </mxCell>
        <mxCell id="6sAhm8Tma2SEbeLi_Sfp-31" value="" style="endArrow=classic;html=1;rounded=0;fontSize=19;exitX=0.968;exitY=0.479;exitDx=0;exitDy=0;exitPerimeter=0;" edge="1" parent="1" source="6sAhm8Tma2SEbeLi_Sfp-5" target="6sAhm8Tma2SEbeLi_Sfp-4">
          <mxGeometry width="50" height="50" relative="1" as="geometry">
            <mxPoint x="80" y="200" as="sourcePoint" />
            <mxPoint x="130" y="150" as="targetPoint" />
          </mxGeometry>
        </mxCell>
        <mxCell id="6sAhm8Tma2SEbeLi_Sfp-32" value="" style="endArrow=classic;html=1;rounded=0;fontSize=19;exitX=0.995;exitY=0.63;exitDx=0;exitDy=0;exitPerimeter=0;" edge="1" parent="1" source="6sAhm8Tma2SEbeLi_Sfp-6" target="6sAhm8Tma2SEbeLi_Sfp-4">
          <mxGeometry width="50" height="50" relative="1" as="geometry">
            <mxPoint x="90" y="260" as="sourcePoint" />
            <mxPoint x="140" y="210" as="targetPoint" />
          </mxGeometry>
        </mxCell>
        <mxCell id="6sAhm8Tma2SEbeLi_Sfp-33" value="" style="endArrow=classic;html=1;rounded=0;fontSize=19;entryX=0.208;entryY=0.526;entryDx=0;entryDy=0;entryPerimeter=0;" edge="1" parent="1" target="6sAhm8Tma2SEbeLi_Sfp-8">
          <mxGeometry width="50" height="50" relative="1" as="geometry">
            <mxPoint x="260" y="160" as="sourcePoint" />
            <mxPoint x="300" y="100" as="targetPoint" />
          </mxGeometry>
        </mxCell>
        <mxCell id="6sAhm8Tma2SEbeLi_Sfp-34" value="" style="endArrow=classic;html=1;rounded=0;fontSize=19;exitX=0.571;exitY=1;exitDx=0;exitDy=0;exitPerimeter=0;" edge="1" parent="1" source="6sAhm8Tma2SEbeLi_Sfp-4">
          <mxGeometry width="50" height="50" relative="1" as="geometry">
            <mxPoint x="250" y="220" as="sourcePoint" />
            <mxPoint x="350" y="220" as="targetPoint" />
          </mxGeometry>
        </mxCell>
        <mxCell id="6sAhm8Tma2SEbeLi_Sfp-35" value="" style="endArrow=classic;html=1;rounded=0;fontSize=19;entryX=0.554;entryY=0.135;entryDx=0;entryDy=0;entryPerimeter=0;" edge="1" parent="1" target="6sAhm8Tma2SEbeLi_Sfp-10">
          <mxGeometry width="50" height="50" relative="1" as="geometry">
            <mxPoint x="410" y="110" as="sourcePoint" />
            <mxPoint x="460" y="80" as="targetPoint" />
          </mxGeometry>
        </mxCell>
        <mxCell id="6sAhm8Tma2SEbeLi_Sfp-36" value="" style="endArrow=classic;html=1;rounded=0;fontSize=19;entryX=0.268;entryY=0.201;entryDx=0;entryDy=0;entryPerimeter=0;exitX=0.725;exitY=0.615;exitDx=0;exitDy=0;exitPerimeter=0;" edge="1" parent="1" source="6sAhm8Tma2SEbeLi_Sfp-9" target="6sAhm8Tma2SEbeLi_Sfp-10">
          <mxGeometry width="50" height="50" relative="1" as="geometry">
            <mxPoint x="400" y="250" as="sourcePoint" />
            <mxPoint x="450" y="200" as="targetPoint" />
          </mxGeometry>
        </mxCell>
        <mxCell id="6sAhm8Tma2SEbeLi_Sfp-37" value="" style="endArrow=classic;html=1;rounded=0;fontSize=19;" edge="1" parent="1">
          <mxGeometry width="50" height="50" relative="1" as="geometry">
            <mxPoint x="550" y="160" as="sourcePoint" />
            <mxPoint x="660" y="91" as="targetPoint" />
          </mxGeometry>
        </mxCell>
        <mxCell id="6sAhm8Tma2SEbeLi_Sfp-38" value="" style="endArrow=classic;html=1;rounded=0;fontSize=19;entryX=0.243;entryY=0.324;entryDx=0;entryDy=0;entryPerimeter=0;" edge="1" parent="1" target="6sAhm8Tma2SEbeLi_Sfp-15">
          <mxGeometry width="50" height="50" relative="1" as="geometry">
            <mxPoint x="550" y="160" as="sourcePoint" />
            <mxPoint x="590" y="170" as="targetPoint" />
          </mxGeometry>
        </mxCell>
        <mxCell id="6sAhm8Tma2SEbeLi_Sfp-41" value="" style="endArrow=classic;html=1;rounded=0;fontSize=19;curved=1;entryX=0.575;entryY=0.125;entryDx=0;entryDy=0;entryPerimeter=0;exitX=0.793;exitY=0.475;exitDx=0;exitDy=0;exitPerimeter=0;" edge="1" parent="1" source="6sAhm8Tma2SEbeLi_Sfp-13" target="6sAhm8Tma2SEbeLi_Sfp-14">
          <mxGeometry width="50" height="50" relative="1" as="geometry">
            <mxPoint x="460" y="460" as="sourcePoint" />
            <mxPoint x="510" y="410" as="targetPoint" />
          </mxGeometry>
        </mxCell>
        <mxCell id="6sAhm8Tma2SEbeLi_Sfp-42" value="" style="endArrow=classic;html=1;rounded=0;fontSize=19;curved=1;entryX=0.796;entryY=0.585;entryDx=0;entryDy=0;entryPerimeter=0;exitX=0.356;exitY=0.852;exitDx=0;exitDy=0;exitPerimeter=0;" edge="1" parent="1" source="6sAhm8Tma2SEbeLi_Sfp-14" target="6sAhm8Tma2SEbeLi_Sfp-16">
          <mxGeometry width="50" height="50" relative="1" as="geometry">
            <mxPoint x="460" y="460" as="sourcePoint" />
            <mxPoint x="510" y="410" as="targetPoint" />
          </mxGeometry>
        </mxCell>
        <mxCell id="6sAhm8Tma2SEbeLi_Sfp-43" value="" style="endArrow=classic;html=1;rounded=0;fontSize=19;curved=1;entryX=0.843;entryY=0.494;entryDx=0;entryDy=0;entryPerimeter=0;exitX=0.827;exitY=0.759;exitDx=0;exitDy=0;exitPerimeter=0;" edge="1" parent="1" source="6sAhm8Tma2SEbeLi_Sfp-14" target="6sAhm8Tma2SEbeLi_Sfp-17">
          <mxGeometry width="50" height="50" relative="1" as="geometry">
            <mxPoint x="460" y="460" as="sourcePoint" />
            <mxPoint x="510" y="410" as="targetPoint" />
          </mxGeometry>
        </mxCell>
        <mxCell id="6sAhm8Tma2SEbeLi_Sfp-48" value="User" style="text;html=1;align=center;verticalAlign=middle;resizable=0;points=[];autosize=1;strokeColor=none;fillColor=#FFFFFF;fontSize=19;" vertex="1" parent="1">
          <mxGeometry x="35" y="280" width="60" height="30" as="geometry" />
        </mxCell>
        <mxCell id="6sAhm8Tma2SEbeLi_Sfp-49" value="IC Service" style="text;html=1;align=center;verticalAlign=middle;resizable=0;points=[];autosize=1;strokeColor=none;fillColor=none;fontSize=19;" vertex="1" parent="1">
          <mxGeometry x="473" y="195" width="100" height="30" as="geometry" />
        </mxCell>
        <mxCell id="6sAhm8Tma2SEbeLi_Sfp-50" value="Ingress" style="text;html=1;align=center;verticalAlign=middle;resizable=0;points=[];autosize=1;strokeColor=none;fillColor=none;fontSize=19;" vertex="1" parent="1">
          <mxGeometry x="640" y="430" width="80" height="30" as="geometry" />
        </mxCell>
        <mxCell id="6sAhm8Tma2SEbeLi_Sfp-51" value="Pod Service" style="text;html=1;align=center;verticalAlign=middle;resizable=0;points=[];autosize=1;strokeColor=none;fillColor=none;fontSize=19;" vertex="1" parent="1">
          <mxGeometry x="455" y="430" width="120" height="30" as="geometry" />
        </mxCell>
        <mxCell id="6sAhm8Tma2SEbeLi_Sfp-53" value="Ingress Rule" style="swimlane;fontSize=19;strokeColor=#080808;fillColor=#FFFFFF;" vertex="1" parent="1">
          <mxGeometry x="730" y="390" width="400" height="300" as="geometry" />
        </mxCell>
        <mxCell id="6sAhm8Tma2SEbeLi_Sfp-55" value="" style="shape=image;verticalLabelPosition=bottom;labelBackgroundColor=default;verticalAlign=top;aspect=fixed;imageAspect=0;image=data:image/png,iVBORw0KGgoAAAANSUhEUgAAAjkAAAGACAYAAABPxnNNAAAgAElEQVR4nOzdf2xTZ573/ffsdhqTpOMYTZMmSloCc9OQGYxXTJvpjCplm9BozIgHRQrayVCpqQxEWanwB0IKPI8qdN8QCfEHIG2U0GioRJYdJVLEjQavKLCDVM100xm0IczSTHchtImShlY43jrG6fx6/jjH9rFjJ7bjkMR8XhIiPuc617nOiePz9fX9Hvsbr9XV/xURERGRHPM3yz0AERERkaWgIEdERERykoIcERERyUkKckRERCQnKcgRERGRnKQgR0RERHKSghwRERHJSQpyREREJCcpyBEREZGcpCBHREREctIKCHLsnOhycaJpucexEBuHT7o422Zb7oE8Adrovnyejp0Lt2zsOI+37yiNSz+oBFIf52Nx4Azey2fYv9zjEBFZIVZAkJNETQlnu6o4XJPicsmaxo7zeLvblnsYOaKN7ssDeC3/ug8s95hSsPMofZkEcAfOmMe5goI/EXliPbXcAwA/h1qH5i4e9HO/qZR1W20wGIosdm91kB/wMTT4GIcIQIjjBxOMU5bVQPsbDCz3IJLaQUdfPRXj13Dv6zQW7TxK354Bumlk36ks7+7U27iz1Of+H2+mcPwa7RdT36ax4zyetR/iftdH35712RmIiMgiZB7k1JRwtqWUfPPhxPUhDvWHV9o50VXK9PAs1U67sWhslN3H/JYO7JzoqqQs4fYAIR74oHq9HTchvADYcK23gS/8eG4/c/cDniMuavEzUWGPtgtMcuHgFN747Qlx59wIxyNBlI3DJ6uoLjQeBYdH2NsZIlZsm/gxeI64eNk3yv31lQv0swg7j9K3x8Gvr0LDtnJz4ThXtr/NaWu7A2fwRtbD2NXoxXZ/9wANkVX1eC/XAxAYfo9d7dDR9yZrf5Po4rwjZl1jx3k8zoLkYwjvi3HGysupCC+cuU3PrnfmBi3mmI1xXALi9jFnuza6L7/Cw6v32LBtM8Ypn+HWu2/EXrSt52L8Nrccm9lwN7qPtM0ZZzlrC2a4daEz2ubiTe42b2ZDyQ7gUvRcRH8lMceZzn7NA0l4vmPbJDgXMdqoLp/h1rvRcTd2nMez4V7sed55lL4967lr9hUJOHceTX3sIiJLKMN0lZ0TTXCxdYjdrUPsPjdJUV18CslG9fogF1qH2N06ykRFZVw9izGDs7t1lIkke+n5xA+F+ZYAJI+iQpj4JBxAGAEK181xtI5wx1FJ7xH73M4q7JZ2Q+y2BDhFwyPR5a33oakST2RDYwZnd+sIdwKJx+k5UkU1k/McK+Q7S6Hf3Md1P/nOUss+wnbQ0TewiLqKcho2jeDe3oh7+3vcminnRx07oqsPnMG7Da5sbzTavHsbx7Zo+uT0PmN5z/AMjF8z+2k0L7iX+NwHFZsSpLF2bmVDwQwP7xv78Djh1rvGtlfGy2lIVjNTXg5XGyP7cScKcHYepW9bOWNXG2Mu/APtb0THmlABW34Iv9geHkcBW35sHXsb3Wa/7u2N9Dxcz5aCJF2lIuE4O7kTv1/zXN0dtAQ4jtv0bI+eh1/QlF5K69TbxrZXxxccm3HOYMue5M+xxo5XqBj/MCYIGhi8R6BgPS9ZUlCNNespnLnHb9OY7REReZwyDHL8HDo4FZ1NGfRzP2Cj6PnYVhOD4TZ+bgyHyF9vx53ObvofMoGdjeGi5Ka1lOHnE3PGx91WStnYqGUGKMTxQT9UrJ0bQMS0izX9hXVGJcTxg6P0pDxIOxsrUjjWscno7FD/QybIozjrdUUz3PrX8LvvS/z27gyFa8Pv3nfQ8cNyxq5a3uVffIdfjycJXBIYezgDjhIaiSv4XeeIXOz2byoHywXy9L/ennNxjBi/tkDKpo3uPZth+L2MUjtjv4kGTac/Ho+MHYADVVTM3OaK2e9A+4eMpb+LBcd5el8j7o+rojU5zfCL7XGzKL6pmOBuoP2NrKayjGAk/ljLqU4YSLXR4Cxg7OPO2MUXb3J3poANNeGgeQcvbSggcPfmCk4XisiTLuN0lbutimZn7GxF8FkbEA4YQkx/Fl3n/WKWZqd1ViYVfj4Zg5fNfj0b7TAWDUDKHDaoqKS3a+526fRfW+eit84Yc2yqKlULH2vQNxu3jRkUxuzrEu27MkyVAODj8/h31eaFfYBy1hZAxbYBvNvi2iSZAIg3MHiPf3A6jPTSWghgBi8lDvCNMADsBwIPLR1enMK3ZzNr16V7LAVs2VMPzHBrMJNzYs4sxXTpiKTGGi1jNozzcAYcae9nvnEaabwtvmu4t79tLNp5lL7LAzSYacLTH4/TsC0+NbiY50ASMYGUcazWlFmEGfz1zAmyLvHbu01s2bCVRi4xEDcjJSKyEmUW5DRV0uyc5UbriBlwGDUpaV/HUtDziZ/aGmNWpNgBE4OxAcxia1t6jg2Zx2CkrqpbXPTWz63ryQ0L1WIs4OIUvj3reW5nG2sd9/j13fVUr4OKtQWxgU2WBIbf49dr36Sh+SiNFxOkslaIpOPcuZUNBeNc2WWtyXmHX/94gIZNbUBnTLHw/u4BGpxv4r1cn7iuZsmZs32/eTvhuTaCXDOwVapKRFaBjNJV7mfzYOyhJaVj1MrEik1fuZ/Ng0Awaf1NUp8FCRY6cDXZWVcYO2My4QuR78hLt8ckzBqh60nSXfPK0rEuqXEezhRkMKOSoI+aEhy+KU4P3sOx6QzV5bHv6KMpMmBnCY5EsyoLMvo8ve8aYwWbacjybdcDU77Y9JU505W+eca5zsGcP4t5GDVR1+ZJJS1CgmP1TcXP4tSzpWCcO8lSZZGUVZtSVSKyKmT+OTmWQMDdVpowDVVWU2LWpdipddoI3vNb7opKUbjeZ2P+nFvHvZ2Tc4t8a0o4m6jwOJGaEs6eLImpnfFstKcZoBg1OFk51kUXHs/nEu2/GadiW+znlzR2nE9c5BpzUYz28du7M1Q4N+P7uNO46DnKqbCkyU7/620C5a9E9rH/x5sX+Y6/kyvDM1Rsy/I5OTUSE5Q0drwSvcsrzv7uVD73JcE4T40wRjkN1s8c2nmUH5Vj1rzsoKMvrt8DVVQkDAozf24MtH+Y4FjnBjP7N5UTGL42zwySWeflrGeLUlUisgpklK7ydo5QdsRFbZeLWiA4PMqdQGVcuirEnXv5NHe5aAbjtmpLWmlOTU+4LiZya3e0n6F7IZqddoLDk3GBg59DraOc6KqK1uUEJrlwMMVU0+AUeynhbHiMke0t+2+qpLfOEjQ5w/vyc6PVqA/ydt7HdbKK5q7ShMe6Ypx6Gzdn8O4ZwLvHWBQYfo9dcRe7gfZ+Xup7E8/lATzE1okMTPnwgHkRvsTnvjfZgi9atHvxHX5Rcx5PZB/jXNm+uFRTeDwNfUcZ2/UOA7TRfbneEpRsjozVekv8/DrZd7UKb7hGafw2t2Y2syGr4+xk33bovhytuSFmjJdo34URvOwJr003pWjW/VhmoRouD9CA9fcWd6zMcOvduHTYzqP8qHycX++bP3AxUlZJAte4jyfYsmcA755FpkhFRBbhG6/V1f81+92an5OTURGvyHLYMc/nAOU+43OLLB9aKCKSA1bu1zqILLH93ZbUz0L1KLls51F+VG79+AERkdywAr7WQWR5nN43YnyvFBBOEz3+O5pWgIvvsEvpJBHJQUuUrhIRERFZXkpXiYiISE5SkCMiIiI5SUGOiIiI5CQFOSIiIpKTFOSIiIhITlKQIyIiIjlJQY6IiIjkpAyDHBuHT7o40ZRC06ZKersq0/xW78TcbVX0xn2hpoiIiEgiT/wnHu/vHqChPG7hzG16di3uSyVFRERkeS19kNM/yu7+Jd9Lxk7va+Q00NhxHs+GewpuREREckR2gpyaEs62lJI/NsruY35jWVMlvXV2s4GfG62j9Fg28Rxx8bJvlPvrK6kuNJYFh0fY2xmytLJzoquSMrOPO8NZGW1aGjvO41n7IVeoj874jMd/W7PxDdZbCgBmuDXsY4sTrmx/O/pdSDuP0rdnPb5xqCgviGw5djX6rdeNHefxOMPrjO9Sard8p1D8rFNg+D12tV+KLth5lL49mymMLBiPHYOIiMgTJAuFx3ZOtJTC8Eg0wAFjBqd1iN3X/Um3zHeWQv9QpF2+szSmdsdzpJKyMbOfc0HWOW2JOzpwBu/lAfo6diz+cBIpr6f640bc2xtxv3ubQPkrdOyMrm7saGILt+nZ3oh7+4esdcbnv8IKqHDcM9sZ/2ICnA2WdVd9bNlzPrKf/d0DNDhux2z7C5roPmB2bQY4vqvR9e7tI1T3HaVxac6KiIjIirbIIMfG4ZNGIBI7A5OisUmOD5o/9z9kgjyKa8zHNSW8XBHizjUzSBqc4qOxxY02YzO3uWIGI1y8yd2ZAtauC6/cwUsbChj7TTjN1cmV4ZlkHXHrQqJ0WBsNTmLXnbrGrZkCNtRYAjffVMy2A+1vRIKkcP8P71sfd7JP6TcREXlCLSpdVVZXRRkwMZh8tmY+Qd9s3BIbRc8D4cCHWR4MRtdO+ELgSNDRqbdxn0qwPFviggsAR8kO4BJQztqC2OBiYMqX3t1kO0twUEDFngG8e2JXBcz/T388TsO2eryX643l8amqize527yZLZE+lKoSEZEn2+JqcsZGueArpbmuEk9/bM2NpGuBoMQSyO3vHqDB+Sbey/WWbS7RvssMeszUVcPlAX4UHwyJiIg8IRaVrpr4xI+38z53AnZebktSL5OpwRDT1vQVUObI8j6yYpyHMekraCxJNN00j4tT+HDw3M6Fm4JxR5h7+zXGKKf6QIIGF99h1/ZGeoZnKNywVTU5IiLyRMpC4XGI44N+8p3rOFyzcOvU+flkzEZ1vXmHVk0JL1ckabrUhcfzusRv785Q8cNwgW8bDc6CBbaJ18mVYdiy5wz7LUv3d4cLj3fQ0Xc+ptiZA1VUWGtwDpzB291maWDUCiVKtYmIiDwJsnMLef8oNza6qG2pxDM4Sg82Dp+sitwaDlDb5aKWRLeJJ9dzbJSNXZX0doFxC3mI6vVZGXFE7G3Zm/FcHsCT5ocBDrT381Lfm8a2zHBreJwKZ3rjGGh/AzrO47k8QIO5bOxqI/sugpGKgo4+a81O3C3mp97GbQZ7EXNudRcREXlyfOO1uvq/Lvcgcs6BM3h/6NMHC4qIiCwjfUFnNuw8SnckVbaDjh+WE7h7UwGOiIjIMtJMTpbEfFqx0kQiIiLLTkGOiIiI5CSlq0RERCQnKcgRERGRnKQgR0RERHKSghwRERHJSQpyREREJCcpyBEREZGcpCBHREREclKOBTl2TnS5ONG03OMQERGR5bbsQY7niIuzbbZlHoWdE11VWf4WdREREVlOyx7kiIiIiCyFjL7Wwd1WRfN6CBbayCfEneFZqp12wM+N1lF6wg2bKumts0e2m7g+xKF+ABuHT1ZRXTi372ibBO3GRtl9zD93LE5jJig4PMm0sxRS7aOmhLMtpeTPGUXcccS1ix2jiIiIrERPZb6pj4utflwnq6he7+NC6ySuk1W83GajpzNkBjhwo3XICBZqSjjb4uIEQxzqD3H84BBgpKte9o2wtzM0Zw+eI+ugf4jdgxAOVs62WdrWlLDTCXfODXF80OirFphItY/BKfYOTmGkq0qZPjfC8cH4Udg50QQXW4fwRo6jisOfzW27v3uAhvIZbr37Bu0XMz+zIiIisniZp6t8IbyEeOCL+xkAG4dr7Exct8yGDE7x0RiUbbQn7C6RnmPWQCLE0L0Q+Y68yHpPfSn5Y5ORNj3XJgmm2cfC/Bw6OGUEOACDfu4HbBQ9n0YXIiIi8tgtYiZnPnkUFUJZnYveurhVY2l0kyidFLDhxh8JOoK+2ei6wRDTLen3sRBrSiws+KwNiJ19Or2vkdMp9ikiIiJLa4mCHIAQdxKmf1Jl50RLKdPXh9hr1r+Ea4Eeax9NlTQ7Z7nROmLOShkpr3XpDENEREQeuyW6u2qW6cWmdGpsFOHnE0uBb5kjdjZlwheXeqqxUZRmHwtxP5sHYw+jaTdzlkpERERWtiUKckIcH/RTVhf72TPutqqEH9SXvEbGzsZw+5oSXq6IXeu96SNYURrZh6c+0Z1S8/cRNU9QVrEWT+QYSilL0mx/9wDey+fp2JlsHyIiIvK4LF26qn+U3VTS2+Ki16yTCQ6PRNJGYT3HRtnYVUlvl/E4cnv24BR7n8+nN1zXE5jkxnCIWmuqaXCKi1sdNJv7CA5PMlFRGrN+wT4A8HPouj/aznILubdzhLIjLmq7jDu3gsOj3AlUKl0lIiKywmX0OTkiIiIiK50+8VhERERykoIcERERyUkKckRERCQnKcgRERGRnKQgR0RERHKSghwRERHJSQpyREREJCcpyBEREZGcpCBHREREcpKCHBEREclJCnKyqo3uywN4zX/dB5Z7PEkcOIP38hn2L/MwGjvO4+07SuMyj2N12EFH3wB9HTtiFx84E3m+pf6cS9LXY2f8vaT+d9JGt74AV0TSsHRf0PkEaux4hYqZ2/TseocB64oDZ/BuK49tnKidSLpOvY37FBiBy5usXe7x5JD93QP86OF77Gq/tNxDEZEMKcjJooq1BeCbShy4rKSgJnJhXF4D7W+sjPOxKlyifZcutiIi6Vi2IMdzxMXLvlHur6+kutBYFhweYW9nyNLKxuGTVZH1jI2y+5g/tg9HiPxCG+DnznAe1U4bBCa5cHAKr9nO3VZFs9NmPgpx59wIxwezdyz7uwdoiEzU1OO9XG8M92oj+7IUTBjvKq9xd0M9WwqMZYHhuHeZ1hmj8dvccmxmw11Lm5gZpXGubH+b05Z9NHacx7P2Q65QHz2e8Wu493XGHWvstvu7B2hwpB7ENXacx+M0DyJB8JeVYw3vZ4OPMcqpKAgvtY7dmP0I72PuWNrovlxPReTxDLfefYP2i7FjbbBM0s0Z50LnYe2HMed37rrxmDGm03+M+POVbDzOyMmYc6yxz58E6zHPB+OMlZdHz5vlvFr3ERi+jS/9I4F1R+m7vJnCTMe58yh9e8Lbw7zPifI38V5+E8ju37OIPB7LWpOT7yyF/iF2tw6x+7qffGcpHst6z5F10fWtI9xxVHK2zRbbh2+S3a2jTGCn2mH+XFhKbZOx3t1WRfN6Hxdaw/uZpbqlisM1sWPZ3z2AN8N8/+l9jbi3N3JlHCMo2G48jnlBLNiMJ1I7kVk9TKHzFbhg9O2+Ok6hs97STxvd28oZu2qs73m4PvpCHXbq7ci2SZXXU/2xuY93bxMofyXmnJze18iV8XIautuMBQfOGEFPGrNUA+1vGGMcnlm6Yw0rKMdx973I78QddzHbYFl3xbcZT6RGyAhwHMPWbfuhOfq7iwR3kfWN/IKmlGtMBqZ8UF6V4Lmwg5c2FBB4OI4xg9OIe/t73Ep+uhaw8Pkygg8fV6zHWtMWbbDzKH2bRqLn4qqPLXuSPI/Ly+Fq9Jy4w8+NnUf5ByfcetdY/uu1my0BZKoK2PJD+EX4dzZewJYfx43TeqzDxI7TDHB81vFtH6E68nsPn2/j7zlg+f0rwBFZfZa38HhsMjqj0v+QCfIotgQfPcesMy4hhu6FyHfkxXQR9M0Cs0wHYn822Kl1wp3+6KwO/ZPcCdhYtzU2WFpavsgLu/HC66Ahk0Bn/MPoO9JTI4zh4LlwAHKgioqZ21wxX4gH2j9kLJOhWvrg4k3uzhSwdl1sk9P7rjFWXk/3gfDFM3ZGKCuydawzt/lFopmPA/VsIXbd6X+9TaBgPS9ZgjrflHXbS7TvijvWuPTkQPsbqV8M7/sIhI9r51H6IkF2OWsLZrg7mJ30VLhWLPn5aqPBWRD3e7xEe7tlhuniO+yyzjjF/06sxq8lPAf7f7yZQsvv9fS/3iYwt9mCxn4TDahPfzwOjpJI8XpjzXoK5xxrOdUxgecMD+9bH3eyb6WkkkUkq5a1JscISqxsFD0PhAObmhLOtpSSb20SsOHGHw1a5lNjowgbZS0uelvi9h3X9PS+xuxfqMNOvUO75eFAez8v9b3Jjzp2cDqN1IPxzt4qGoA0ljjAN2J5oR7n4Qw40h1rgpoiR8kOwDrOTvZdrcK7rd5InyzBO9ylPtbGEgcUlOO5PBAzewjh6ZJO7ozX07BtAO82Y3l82uP0x+M0bIumJ9NOJV28yd3mzeZxOWAGNtTsAEpw4OPOxQW2T0fM7zXufO0swcE4v17g9xifmgNgXcKmScX8Xi9O4duzOb0O5gQoQIEjdkYowbFuCD+HzXO+Zc8A3j3G+vi0rYjkjhVceGznREsp09eH2NtvLDFST+n24+dG6yg92R7eolzic9+bbIhbGnMRWUmFygk0lhiXyMINW2nkUuw442oeVmwtQ1y9Ubxo4GukrrbsGcD7Y8s2lgLu/d0DNDjfxHu5fs5FM/nv1XwelOxg/1oHd39zjw2bymGdg8IZX2YzcUukseO8mZoLj904J9kXWweVcQ1SUpYCbvN52nB5gB9lfT8ishKs3CCnxkYRfj7qjy4qc6SZYhoMMd3iMFJgWSw0XrwdPOcA38exL6qLmU0amPLh2WBM2xsXoXLWJqtTWawDZ/A44da770Hzm/xDxw4GrBeIi++wK5uzEHGycaxz+5hPJ/u2d5oFrUYNTfzvyfjdGRfo6gPAqfh1iY09nKFw7Vaec/j4/NRN6Kune1M5gbvXshbgLni+zBmV+HFbVawtIHD3ZnRMO0twQFqFw8axWqaCEvZhnuvFcMw91ti0o8l8nhoF6gmCdRFZ9Vb4hwHa2WgWEFNTwstpVyn6uTEM1S2VcQXN2S08nt8OOvpi628aO5rYUjDOnWzObpwaYaxgMw0Hwvt4JYOizlQYdTiB4X7aL16i/cJtcDY93g9oy8axnrrGLTbj6bYUrdJGd7gAdedR+uI+qHD/pnKIzLDsoKMv7vlyoIqKROmUeQwM3iNQvpktvhFOc4nf3nVQUZ7kojyvS3zug4pNbXNXLXi+OrkyPEPFNuvzdAcdHbF9GbN2hv0/tt6dlBrjWKOF7Jn0seA+2j9McKyWv7UDZ/DG/M6NIu9kH/0QE5SJyKqzcmdyBqfY+3w+vXUueuuAwCQ3hkPUppmu8naOQFsVzV0uas1lE9eHOPTYZnYu0X5hK32XB2iILFuKOoBwnYxZQzJ+m1szmy0psbhbY4EGc0yppwR20NFXT8X4Ndzh9hff4Rc15/HsOU8Hc28pniv+tuzNkbqY1NNaCx1rKi7Rvgs6+t6M1NSEfy8D5nHt4ih91pqduFSTsX24tgOS3VY9r3BdilmrMjDlwwPRQCn+gySd4Vua5z6HTu+7RvXlcI2Qdf3C52ug/Q3oOI8n8jw1jiXa93s81/em5XdlFJ+nJfJcMc5ZYPg2Y+Xp1uQsJO5YmeHWu5bzdOpt3OanREckSVvGns8VnHYVkaS+8Vpd/V+XexCyFMxPwP3Nk/DC/CQdq4iIpGqFp6skHfu7LemGA/XZT4mtIE/SsYqISGY0k5NTrKmgDFInq8qTdKwiIpIJBTkiIiKSk5SuEhERkZykIEdERERykoIcERERyUkKckRERCQnKcgRERGRnKQgR0RERHKSghwRERHJSQpyREREJCcpyBEREZGcpCBHREREctJTmW7obqui2WmLLhgbZfcxv/nAzomuUqaHZ6l22hOsx9KukrKEfSTaT4g750Y4PpjpqEVERORJkdFMjhF4zHKjdYjd4X+frOVsmyXowUb1+iAXWofY3TrKREVl3HojwOF6uI8R7jgq6T1in2c/92GrnTkOnMF7eYC+jh2ZHI6IiIjkoMzTVYEgE9bH/aPs7QzFNJkYnMILgJ8bwyHy19txm+vcbaWUjY1yqD/cOsTxQT9UrMUDgJ1ap42J66P0YGnTGT8bJCIiIjJXRukq700fO52lNHeV0gxJUlEhpj+zbPPFLM3O/Ehqqsxhg4pKerviezf7qbFRhJ+P+uPXJ3DqbdynMjgQERERyVmZ1eQMTrF3cAoIp5Qq6e1Kv14mODwyZ/ZHREREJBsWfXeVt3PEqKcJ2Fi3NbYmp+j56CP3s3kxKa4JX4h8R17yjgdDTGNnY9NiRygiIiJPooyCHM8RFyeswUeNnXWFMP1F7KxMWU2JWYNj1NcE7/nNGh3wdk7OLUauKeFspPDYqOMpq6s0a3QAbBxuU+GxiIiILCyjdFXPsSE8R1wx9TQT14csRcQAIe7cy6e5yxWt24lJTfk51DrKia6qaD+BSS4cjNb2eDtHoK2K5i4XteE+z41kMmQRERF5wnzjtbr6v2a/W/NzcvSZNiIiIrJM9InHIiIikpMU5IiIiEhOWqJ0lYiIiMjy0kyOiIiI5CQFOSIiIpKTFOSIiIhITlKQIyIiIjlJQY6IiIjkJAU5IiIikpMU5Iiscs5Xf5LW8sW2Xcx+na/+ZMF/qfSZzfE+zu0WOjfZ2resDIv9/S3n7z/VfWerXaK/8XT/Jeozo++uyi47J7oqYc53Xz053G1VNDvDX1RqfD+Xvg5jBTlwBu82uLL9bU4v91gSGP7glzhf/QnDH/wypeXxkrVJtDydtvONd76xZCK83Xx9p3o+FrOdtV2m+5N02Sl+6VWei7yE3ucPv/09s8s6psyk8jxeaVJ9ns/XLtnrVyLp/k2tgCDnSWHj8MkqqgvNh4FJLhycwovxRaTGt7Mb3/m1XDxHXNRWxH/ZqoLQlcL+vZ9Q9OUv+fTz53nh1e/w6D/+jQeBue0WmvWwvkCE1803g2Jtn+iFKt0XnWy9O7X2kygYS3f/4WPLZLvFmu8cJvv92b/3E15wxDVexRf4BRV+jxf/bh155sPZiQ/4w10/4OfBb3/JA4DnfoCzYvmGaLXQ31b49zjf83ipJBpTqkF8un2mOgubynlI57Um3HYFBDl+DrUOLfcglpgR4Ky7NxL9JvaaEk602fDGfDP7ylBWU4K7f8oMvIRTb+M+tdyDeJ4iR5BH94HCb2ELPeBzS4ATH4iELfSisHJsAsoAACAASURBVFDbZC9Qif5PFDzF7yPR41T2Z/3ZOlOSaPv51qey38UEbPFBYCq/i0QXw2Tveq1t/L//JcNA3obXeHHtg9wNbsAMcIrx/ccvI4F93oYfUFz47wkD/eW2UNCa6O81nfTvYoOhZM+rZH9/yV5fMtlXOtJJ4SZ787aMQY4xQ1BmPpqInymoKeFsSz4fXYfaOru50M+N1lF6LM2sqZ7g8CTTztI5sw6eIy5q8TNRYY/szzqTQlMlvZF9zB1LbDoJGBtl9zF/0mOJTzm529ZRzSQXrAHN4BSH0k1JxYwzQVqrpoSzLaXkRxbEn6/5xwnRc1jbNIU3ycxNeMYHiD2P5rqXHSHyC22AnzvDeVQ7bXPaLW2Kro3uy6/w8Oo9NmzbjDF5NsOtd9+g/aKl2YEzeLeVGz+P3+aWYzMb7r7HrvZLc9czPiddtb97gB89vMbdDfVsKTBPx7Ble3bQ0fcmW7hNz653GLAu813Dva8z9UOyBDZ5G4rJe/TfC17QrC+m8wUh8dskWzb8wS8XfPc53z4X2nciC/W10Hbptn+cL+DJ+gnXFyy277wNr/Himv/mU5zRGR/fMMO//8zSyprqCfL5RJDnyuDTD/6dyCucGWCEfGB3WF5d/uuXfPq5ZV9l4XVBPo+bZYyfdYrOwlj3EZ2lgS8tY7BTvGkdTHwQ0+fs3X83Zm/SEDOOBLNeixtn7N9KOuneRLLx95OuTGZoU02JL7S/ZH3N9xo2X4AYXreMQU54BsdMhyRkp3bjKLtbRwnPhrzcZqPHMhuy0wl3zg1xfDAczMBEoq4q7HB9iN3xF+6mSnrr4EbrkBEM1JRwtsXFCYxAx7gYz3KjdSQaLDRVcrZtlr2docj4i4YtszTYOHyyEs+gEWCUOWwE7/kXNzNSU8LZjQ/Nc2GOuyW6j3CAM319iL3WVNPJEtwHp/CmME6DnxvDDpo32gFrIGdwt1Wx8ZMhdh8zHnuOuGg+EsJrCfryfZPsPggnuiqpdoyyu9X4ORw4uduqaF7v40KrJchsqeIwcYGOGWTEBg6pKmDLD6FneyMDGAFJw4/b4GI4sGije1s5Y1cb2XcKGjvO4ymHmDeF4RkcsyYnkULnK/BuI+6L4Xb17OeSGQxdon0XdPS9yT907GCg/RKNHU1G0JNqgPPcD3D+r29HHr746jrzJyfOV78DlpA2mzM4qSyP/z8V2QwKUnmxT6VNpheSZMeSjZRe1tIWDidF//VLhn+PeYH+DsWFn1lmQ7byHPf5wwe/Z5bneeFVJ/Blgo7ysa8Jt4sVmUkKr3vuBzj/7jUwAx37937CC3Hb5m14jRee+zcjSDIDh9B//ZI/fB7u9XleeOl7hH77e2axs8YWxDc19/UoHXkbXqPoS/NcYIzrxe/9TyToW/w45854pBv0LzSjmK0ar1TGlapUn+/zzR4tZZpuBaSr5hPizjV/5OeheyGqHXmAcZF2b3WQPzYZuTD2XJvk5ZYkNS1jowlqSmwcrrEzcX0oepEfnOKj+lJqrRf5QDA2cOofZW9cT9NfWNNOIY4fHI3so9gB058sMi01OMVeawDQ/5CJulKKa4DI8hDT1jdp+Dl0MPaFIfk4o7ydk9R2lXK4xj9ndiVaP2To+cRPbY0NN9EgLugzXiKmA1Bk/RkAO7VOuHPOkg7rn+ROTRXrttpgMHvpu7HfhGdP4PTH4zT8sIRGMJYdqKJi5jY9ZhpqoP1DGi7XE1/isKDxD6OzQ6dGGNv2Cs/tBCIzRpdov7CVvj1NdBzYygYn3Ho3Oq4Fff7vDH++cD1OohfKTHPc4WXpvHil8g42XdlIR2X6Tnox78CzadH7Dd3n8/AFOTCGL7SONYWY0bwd+9p8/GPhi/pnfD7xHexliToK8vnHidJhz/NcGXz+H5Z1n3/M5xWv4iix8yBgvv48+p+YbWfv/hufxvX/KOYdxmd8+lvzx8JvYSPI9CLTUvH79H/5JVR8izyIjm0x40wg/m8jWRtILcWV7TcJ2Xqep/tmJ1OZvI6s8CBnlgfxKQxH9IJa5rBFLqgADIaYbkmn/zyKCqGszkVvXdyqMeM/700fO52lNHeV0gwJUlV+PhmD2kgfS3d3VEyaKOx5jCBn0M/9plKqW1z0thjjik1VpTNOP5+MVVJbb7cEUGHxKS9DwtfFRGpsFGGjLDLOqGB820XVwszw8H7cogIH4dPXWOIA34gl2Bjn4QxpBzmBh+PxO2HturhFF9/hFzXn8WzbzNjVxtiUWUrmr8eJl0r6KNELb7L8e7J0VTp5+mwWElrHmup+Hrd0Z7oWKobO+LjiLtoAtoLwGzhjhsR60Z6dmfNXOL/Cb2EjH/vf/YTn4laF9+v/8kv4X06crzqN5fEpIDP4ei7SR2wKKHuMmSp73FKbOdZsj3Oh4CbZNo/rOZzouZXO8zXdcWYjzZZKyj1+/QoPch6HBYKSwSn2Dk4B4dRVJb1dsdv0HAvPBBkBQHWLi976cDAU4oEP1j1rIzwDlQl3WxW1jsloimdOmi/E8YNmAbeZuqrtcvHy8IiZVltonLHCs2KHayYtS430VkzKy0z3pWdubVWuq1hrFO1UbGoDUkxVxeX/rReSF19dN/dFOM58L0Tp1NYke2HJpFg33RfHdAqYk9UTZXLRyMbFJp0AJZ0X75VngaDEnI0EMyVU9irOMus2lrujzOf8C6/+JPr8DvwPIYrJi8xAZcJO8UtObBMfMBz+m3nuBzj/VxbHaZqveN4q2RuM+YLjpQiCMukzWYC00Dbx+11KK6AmZ/EmfCHyLekrY5YAplPuYZbpgI2i8GzIAoxUjXmnVMLUilln1FRJb91aPPjpCY9zvR03oYzrcubU9cx3rGZgZtS+JNpv4nHG9/FRfSm19Wstqbo8igpD3L8ZPW73szGTvQsbDDHd4ohLsz1+A1M+PBss6SvKMeOQrGvsOE9D+ThXto9Qfbme7gOd7Etlhirwe/7wwe/J2/Aa67jJH+5C8UuvsmYsWvCZTKo1Ienm/eebFcpU/PaJXjiz+YI43/6yuV0mNUuJLN07ez+PQvmW9BXkFeSTYE41uTQDEOOOMGNGpeg58Mc/jy3P+RfXVpB318+sOc6Y9Ffa5tb1zHesmYzzxQVStlbzPZ8XqqWbLx2cyaxRpn8PjzMQs/adrlX9icfemz6CFaUcrjEee+qtdxalIsTxQT9ldVWRPsCYNTnRZPZ5xBX5GYAaO+sKLbUtNSWcPVmC29LEs9EeU8fj7ZxkorCUnW2WO7TMW8hjGUHXuq3xyw1GoJTkWJsq6T1inYi14VpvA58Z4KQwzng91yYJWu9IM/uNjs9OrTPxWJPzc2MYqlsq8VjHciT2dwAYhbyXB+jr2JHmPlJwaoSxgs00HDAeNna8wpJ8vMbOo/yDs4Cxq29zmk72XR2nYtsZ9qfcgVE3EZpJnF5IJJOi1/AdPYm2TdR2Pule2MNpsHRrDqxjTufFL9P9pbNd/EzYypyd8eN/GMRe8T1ztvB5nitL7xXUqOOB5/7uBzFpIPv3XqO4EIwZlPDPpufKsFtrW577Ac7vPW/dGvvafEuqzc+DsS/JK9sa049xC3nccAIBZm3F2OOXA2AESiQ81sWPM9OamccdKMR7XM/PTP9erTL5u122mZw5t2WHa0XibjWe1+AUF7c6aDbrO4LDk0xUpPlhev2j7KaSXkuNSHB4JHKHUs+xITxHXPR2RTeJucV8cIq9lHC2y2XU7JDoGPwcah3h8MmqaD+BSS4cjJ8JCnG8f5KzLWY7Sz89x0YoPlkVqQ2auD7KRIUlXdU/yu6mSnqtKSxr/VBK44wTns2JXP39HDpnGR9+blz3U5ZmusrbOQJtVTR3GXfDgXlOH+vMTif7rlbh3TZg3Dk1fptbM5vZEFlv3uptmd1puDxAA/G3ic+nje49m2H4vejMzam3ubJpgIbLZyClT1C2BDYL1OMkKk5caOo7LJ13hvPV9TxOj3v6O1XzFWdn81zF3u68zrjzLs0PA5y9e5PP175q3rUX5POJL5MUHs/Xx7/xB16LzGSAeXt5AIwUz02KX/oJ0Zf7uFvMP/93hvlBpBYGmHur++f/znDge7xoSdnOTnzAH+L/FgK/5/7Ea5F20VTSZ3z6H9/ixb97FWcZwJd8+l9fYo+kq7I0zgykOsO6UPt0nv/Zei6mE5xlY/YpE994ra7+r0u6h8fK+MTgaX0tgqTNCGrW/qYxtVTSCpPKu8F0ptBTLZRNdPFOFlglWp7qi20qx5Kt/WVznKmsT3RxStbHkr/Df+4HOCsCuf3Bgo9BKgFHOgFCJs+rxbZNd4Yp3XWp/g2nKtl2q7omB2wcPmJn6JgxG+FuK6Us4OOGAhxJwf7uM7DPnE05UM+WgnGurMIABxa+SypeOhfWRNvF180kCgwWWj7fWBK1S+UYrOsy3d9ixrnQOUzWNtUUYdYDnMLv8ULJGJ/eNdKhxRXfZvbhxwpwsiDTmpx026Ub+Kb6Bma+/czXZqF9pZsCT+d1KdF2q38mJ+ZTfp+8u3ZkMdrovlxv1uIk+ERkkSdAzKcVZyH9IrKSrP4gR0RERCSBVX13lYiIiEgyCnJEREQkJynIERERkZykIEdERERykoIcERERyUkKckRERCQnKcgRERGRnLSKP/HYzomuyuiXR1q/p0lERESeeKs4yPFzqHUIML/s07FAcxEREXmiKF0lIiIiOWl5Z3JqSjjb4mB6DMoqIt9vz8T1IQ59VsLZlnw+snwXlbutiub1Pi4cNL6QM1XutiqaneH+Q9yJ+ZbyuLTXnPUiIiKyGq2AdJWNMsckF1rjApea7PQeCYzC/TdV0ttSxWFGOD5oBDhFwyPs7gxFxnP4ZCWewbgv+tx5lL49mykcv4Z7X2d2BiciIiJLZgWkq0Lc6U9vZiZ1dmqdxPbfP8mdgI11W6MzR9NfhCzbhDh+UN9kLiIistqtgJmcJVRjowgbZS0ueltiVwUB8PPJGNTWueitg3lTVRffYdfFpR6wiIiIZEtuBzkA+LnRmnxmpufYkLnOSF1Vt7jordft6CIiIqvdCkhXpa7MYVu4kdVgiGnyKE6pvse4JX33dT9UrMWTyQBFRERkxVi5Qc5giGnsbGwyH9eU8HJF4qbeL2aTBCZ+bgxDdUtlzDrPkSoO1xh9nj1Zgtu6bqMdAkEm4rvaeZS+ywN4u9syPiQRERF5fFZwusrPoet+esP1MoFJbgyHqF2foGn/KDc2uqjtclGLeQt6v7HK2zkCbVU0m+sIrx8EmGIvJZztctEc7iswmfYt6iIiIrLyfOO1uvq/LvcgRERERLJt5aarRERERBZBQY6IiIjkJAU5IiIikpMU5IiIiEhOUpAjIiIiOUlBjoiIiOQkBTkiIiKSkxTkiIiISE5SkCMiIiI5SUGOiIiI5KQV/N1VC/MccfGyb4S9naHlHspjVXZoGndRAT2Hv7ncQ1lyruMP+H6p+WDSsYTH/Bf+/p++pOzTb/PPJx5X7P9HdpzzURx+mNHx/ZEd52b46l+K+NX7WR6eiMgqt6qDnMfJ3VZFs2OS3cf8S7QH4yL7zM1iLo0/4mc//TP/2VLI0BLtbVV4/RHfLX2au/EX8Ncf8bOffsWamMb5/G7Vna9vcqnFCHGMwHWZh/M4vBXAs/Vv8f7jGoqPP+C7048zqBSRJ42CnFVo4kQRPcs9iMeh/M+s4Sl8CWcoVmNQIyIij1MOBDl5HD5ZRXWh8Sg4HJe+aqqkt85uPghx59wIxwet29s50VVJWeRxbBvPERe1FeF1lfR2JdnPY7Bw6saYDdqQbz4MPoP3H9cwYWlRdmga9wtP8YAgxeF2MQHDfH0YqZFngl+zJh+YfIa79q/YkA+PPjbekRv958Xt10jL8EExl36ewoG+FcDzajDy8Pvngnw/6TEvgnU/k89wN4WxPLAcg+v4A75rf5o1+V8D+dz9+E9s2PR1gnMWTUmFz1Na4mauHiQ6j64Anp+GjyXD8zTPsYL53Nn0tfkoLsh8/RE/++ksmM+NRx8/w1ebvqI42XhFRB6DVT9PnO8shf4hdrcOsfu6n3xnKZ7wypoSztbZmbhurL8wDNUtldH1ZoBTNDxibN86xO7W+9AUbdNzLLxtCMZGI+0SBTj7uwfwXj5Px86lOdahw8X0tBTj/fjpBGujNSU9LUa73/m/wv1PjywBnCk/yDOWdj1xAc78fXzNVzeL6fkgH0q/4hnz5zWbgriAiaE8HuXP8uLrlv29NUtx8Bl+l+qF7ueFxv4/yMe4mJrjjLlwB/n+uQd4zj3Ac26av389WWfJ/JEdrwZ58IF5Tqdno4FdZNwBPK8S3f+/PMMzrz5gx1vRJmv8BfS0OHhAkA1F5s/5X/H9t8A4nz6KJx2R7dn0Zcz2KY3z/4FfxYwh/ni/ZsMLf4u3pdjYf6mPnx36S3qn460Anlf/xN1/KY787j/7tuX3/lYA9yYi6383GeT7CZ5bE//XeH6u2TTLV/9i/Fy8NcFzUETkMVj1QQ5jk9GZmf6HTJBHcY3x0L3VQX5gkhv9xmNv5yQT2NnYFNvF9BfWgCXE8YOjy5AO+ht+9Y/mO9731/DP6aZi3gqygWf4lWWWYOjGM3MDDoBgbLv0+niar8aB8b/lUczPpvfzmAh+TZkrfJH9C3+/NcijT/NiZpQWa+KD6MW454On2PDT9AKdskMzMYHXxIkCHsS0MMb94APL7+H9NfznJBR/54+RVo+m/xb4W74Kxv4MwOuzlOU/zd0b30y6/cK+ySXrrJh5fp8pj2314Ga4zTf53cdPs+aF2TQCC/N39PG3Ymqfhk5E9+v6ThAmCyLrEz+3jNTixJdPxf1s8fNCeszjGTpcrHocEVlSqz5dFfTNxi2xUfQ8EA58fCG8kXWzTAdg3bM2IAT4+WQMautc9NZB4nRW6k7va+R0ZpsuWtm3/wT5Qdznvopbk2jWZ+n6gL/hD58+zYYXZiljDRPmhX5iKIsXs/fX8Cvr458X8rvvPOD7tX/kV++nkabxP2UJvIzg5JnI4z/zTD4Uv/oAz6tx202mM9jYmqIH00/DC3+ijG+mHPTFpokMj779F6LvUcxg0zTx5VOw6c8UQ4r7+DPPpPA7MoI40/tP8dVPv5oTbImIrCTLG+TsPErfns2Y5TSMXW1k36nHO4SeY0PmrI2RuqpucdFbP7qEd1EtoWzUrGShj4kTBTw4N8OLr68B1yxrgnn8Ia54OKa+KEHtULoeTD8NcXcnzVtDkpIEd3Y9bm8FcG96it+1FMWmFJdxSCIiq8XyBjkX32HXxSXeh8OGG785m5NHUWF8eirMz6HWIbNQeS0e/KvqDqaJL59Ke4ZgKfowfJPPJr/mu64/wgtf8+jTb83pb+hwcVbvjCou+ppH09+KWTbfXWhzj9WYuYn6W75KkBZK359wvA68Hx0n/oLUZ3G+/SeYLLCcq/hxAsSOs+zbf4JgXlz6bT7GsZa5/gLvJ5/NWVP0ZyKzR6//iWd4monxpM1FRJZdTifEvZ2TTBSWUmvW4LjbSinDzydmjQ41JZw9WYLbso1nox0CwcQXIYctpm28pS48ntfP87nLV7iPW+s9/siORIXHS9mHaei/81mzyceG/Hz+M8t1F67jcfU3bwX4fmmaKbGf51kKhM0anZgGf8OvbuZTHFfkW3ZoOvXC4ffX8J+TX7Oh1jyfrz/iu6Xw4L/nzpRNfPkUlM7iStSPZfnccRqixb1/5Pubvk5cA/X6I3527gGe4/E1Qcaxrtn0PzHH6joU/b0P3XiGR6UzkfWu2q8SztCJiKwkq74mZ35+Dl330xtTc2MpKh6cYi8lnO1y0RxeFpjkwsEpSx2Pwdt5H9fJKpq7SmlmeW4hn9/f8Kt//Db805d4zoWXGSma1GdlstGH6ed5PHg1SPFkXtY/y2bocAE7zj3A89PwkkzSSt/k0gf5eMI1N5PPcDf4dWww9/NCegjg+ekDNpj7evTxt/nnNG6HHjrs4Plzvsj5fPTxtxPfTh2uKzJvlw/fdj1xoojfHY8uf/SxY+44eZq7n/4Z9zlz7mbSQU+6gWWCY33wQXFM0fWvXLO4I+vz+V3L4lKMIiJL7Ruv1dX/dbkHIelZHV/rkOZn44iIiGRZTqerctNfePGFr2PvdFmBjLRKPp8pwBERkWWS4+mqHGL9NNrgM3hX6ueLWD6d98EHRfraBRERWTZKV4mIiEhOWqHTASIiIiKLoyBHREREcpKCHBEREclJCnJEREQkJynIERERkZykIEdERERykoIcERERyUmrOsjxHHFxts223MMQERGRFWhVBzkpqynhbFclnqQN7JzoquJwzWMck4iIiCypJyPIERERkSfOqv5aB88RFy/7Rrm/vpLqQmNZcHiEvZ0h40FTJb119rkbBia5cHAKb00JZ1tKyZ/TwM+N1lF6AHdbFc0OH3ccpeY+Qtw5N8LxwaU6KhEREcmGVf8FnfnOUjg3xO5BzKCmFA9GgEL/KLv7MdJVLfl8ZAYuEYNT7B2cwkhXlTKdLHipKKXo+hC7+82gp6USz2BcX8D+7gEayme49e4btF9cksMVERGRFK3+dNXYZDQw6X/IBHkUZ7u2JjDJjX7jR2/nJBPY2diU5X2IiIhIVq36mZygbzZuiY2i54FsppN8IbyRB7NMB2DdszYgFNPs9L5GTmdxtyIiIpK51T+TIyIiIpKAgpxUOGy4Iw/yKCqE6S9C82wgIiIiy+0JCnIWqtUx01yJFJZSa9bguNtKKcPPJ/1zm+3vHsB7+TwdOxc5VBEREVm0VV+Tk5LBKS5uddDc4qK3hegt5JEGfg5d99Nb56K3znh8w3on1tgk0zXhdSHunJt7Z5WIiIisLKv6c3IeB+NzcibZfcy/3EMRERGRNDxB6SoRERF5kijIERERkZykdJWIiIjkJM3kiIiISE5SkCMiIiI5SUGOiIiI5CQFOSIiIpKTFOSIiIhITlKQIyIiIjlJQY6IiIjkJAU5j4HniIuzbbblHoaIiMgTRUFO1tg50VXF4Xm/6VxEREQeFwU5IiIikpOeWu4BLC87J7pKmR6epdppNxaNjc79xvGaEs62lJJvPpy4PsSh/sTrylpc9LYA+LnROkpPpJM8Dp+sorrQeBQcHmFvZyjpPuZuLyIiIul4woMcABvV631caB3Fi50TXZWcbbMGIHZONMHF1iG8YAYjVRz+bITjg8DgFHsHp4gETOfM5XHynaVwbojdg0BTJb11pXgwgxgzwJm+PsTecPCEnRMnS3AfnDL2G3bgDN5t5QSG32NX+6WlOSUiIiI5QOkqYGIwHEj4uTEcIn+9HXdkrZ9D1kBj0M/9gI2i59PcydhkNPjpf8gEeRTH1O+EmP7M+jhuvyIiIpIWzeTEBRfeL2ZpduZTZmnhbqui2Rl7d1TwWRsQIlVB32zcEjNQGsQInJpKqU6a6rI49TbuUynvVkRE5ImlIGchTZU0O2e50TpiBh02Dp+sYl1WdxLi+MEh40czdVXb5eLl+LodERERSZnSVcSmntzP5kEgyIT18djDmALiosIlHM7gFHtbh7gwJ20mIiIi6VCQA5TVlJjBhJ1ap43gPX9sLUzFWjzmj+620phUVqwManXAKEQ+Yo/px7XeBr7Q3JqcA2fwXh6gr2NHBjsSERF5cihdRYg79/Jp7nLRDMYt5JYUkbdzhLIjLmq7XNQCweFR7gQqE6Sr/By67qe3zkVvnfE45VvA+0fZ3VRJb1dldFmiW9lFREQkZd94ra7+r8s9iOUz/23fIiIisnopXSUiIiI5SUGOiIiI5KQnPF0lIiIiuUozOSIiIpKTFOSIiIhITlKQIyIiIjlJQY6IiIjkJAU5IiIikpMU5IgskWP/538v9xBERJ5oCnJEREQkJynIWSU8R1ycbbMt9zByUmPHebyXB4x/fUdpjG9w4Azey2fYvxyDExGRjOkLOleSmhLOtuTzUapf7BmzXSn5SVYHh0fYa/nS0ZVtBx19b7KlIG7xzG16dr3DQNb310aDs4Cxq43sO5X1zkVEZBkpyMkFg1PsHZwyH9g50VUJ14c41L+so1qU2KDDCHw8fUch24HOzhIczHD3/jxtTr2NWwGQiMiqoyBn0cxvMh+epdppNxaNjbL7mD+2WVMlvXXmekLcsX7zecw6qO1yUQsQmOTCwSm8kTV5HD5ZRXWh8Si9GRobh09Wse5e3DZNlfTWwY3WUSbaqmh2+LjjKDX3ETfOhMcCE0seUF2i/cJW+vas56WdMHARoI3uy/UwPk5FeXmkZWD4PXa1XzIeHDiDd1t0XUzgtPMofXs2Y55KtuwZwLuH2BmjmO3HubL9bU5bh2Wuj+n3wBm82xzcevcN/pLVcyAiIulSTU5W2KheH+RC6xC7W0eZqKiMrZ+pKeHsxofsbh0y/l2fpbqlEk94ff+osfzcJEH83Ai3iwlwIN9ZCv3hPvzkO0ujfSwoxNC9EPnr7bgtSz0b7QSHJ6PpsYpSigaNfVwYJnacYAmKhiJjLqpzcaIpbncHzuC9PEBfx46UR5iJinK4sr0Rt/kvNsCxrHv3No5tA3QfMDe8+A67zOUBZrj1rtnOOlN06m1j2dXxxDs/9Tbuq+NUbAvX67TRva2csatv0H5xKY9aRERSoSAnSyYGwwGJnxvDccHE4BR7rTM7/Q+ZII/imjR3MjYZnVXJoA/vTR/BQgeu8DY1JbxcEeL+TcvMTmCSG+asjLdzkgnsbIwEMDYO19iZuG6pGRqc4qMxKNsYndnJvh10NG+mcOYev40LHsauxs2uhNv/sDx23cV3+PU4VGxqy+7QTr3NlfFyGrrb2N9dT8X4NdX2iIisEEpXZUWI6c+ij7xfzNLszKfM0sJzxEVtRdxmzwPxqaB5BH2zcUtsFKXTx6Cf+02lrNtqg8EQ7q0O8gM+hqzb+0KW2aNZpgOw7lkbEALyKCqEsjoXFbekmwAAFctJREFUvXVxfY/FPV5kHUvFtgG82ywL0io8LmdtQYI+AJJMyizG6X3XqL5cT8PMbXp2dWZ/ByIikhEFORi3EHuc4dt5EtReLJK7rYpaxyQXWsOzPWZx8GMX4vign94aY5bJtd5G8J4/JiWWSh8J63SybPF3O81w693HlDbaWYIDoMBaMyQiIstNQQ4w0P7GIu/YiZ1RcT+bBwEfE+baMkdcMFFjowiYXtQ+M9T/kIm6UlxNsK4wLlUF4LDhJjxWY+Zm+otwm1mmA2nOHi2LcR7OFLB23ePYVxvdezbD8Hv00ISn+SiNF5fiVncREUmXanKypKymxKzBsVPrnDtDYq3R8dQn/0wbMqnVSYufT8ZsVNeVkm+t8QkrLKXWrMFxt5VShp9PIndOGTNBZXVVHLaM0d1WtWyFx4ldov0341RsO0/HzujSxo7z0cLjLNnfXU/FzG1+0X6JgfZ+brGZf1iWYxYRkXiaycmKEHfu5dPc5aIZjFvILbdp9xwbofhkFc1dpTQDE9eNO7DmGJzi4lYHzS0ueltIcAt5dvR84qe2ws7EJ/65K8cmma4J19yEuHMu7oMJ+0fZTSW94TFi3sq+0j6T59TbuDmDN3xrOObt5SmnwOZ+KGHD5QEaiN6m3thxnobyca5sD8/chG91f5O+DvivP2fzgEREJF3feK2u/q/LPYjVzfycnMdQp5I1ls/GsQYw7rYqmh2Tcz/jRzJy7P/8b478v//fcg9DROSJpXTVE8e4DZyxh+l9dYSIiMgqo3TVE8TdVkWz0wb4uXFQszUiIpLblK4SERGRnKR0lYiIiOQkBTkiIiKSkxTkiIiISE5SkCMiIiI5SUGOiIiI5CQFOSIiIpKTFOSIiIhITlKQs0p4jrg422Zb7mGIiIisGgpyVpKaEs52VeJZzjG8/oifnQvgAsoOTeM5/scU2k/z969blr0VwPNPjygDXMcf8LNDf1nCAYuIiCSmIEcWxVX7FWsmC/jV+8s9EhERkVj67qpFM7+FfHiWaqfdWDQ2OvebvJsq6a0z1xPijvVby2PWQW2Xi1qAwCQXDk7hjazJ4/DJKqoLjUfB4RH2doaW4qBS9EeeL32au//yzWUcg4iISGIKcrLCRvV6HxdaR/Fi50RXJWfbLAFITQlnNz5kd+uo8bipkt6WSjyDo8Y3gfePsrvfbNeSz0etowm/ITzfWQrnhtg9aPZRV4qH+LY76Oh7ky0F41zZ/janl+6gKTs0Q/FkAZc0iyMiIiuQgpwsmRgMz7j4uTEconm9HTchY9ngFHsHLY37HzJRV0pxDTCYoLNkxiajsz+Z9rGQ99fwz+Gg5URRwmDL8Ee+v+lrHnxQNHfVzwvp+bnx48ThYoayODwREZFUKcjJihDTn0Ufeb+YpdmZT5mlheeIi9qKuM2eJ60AJeibjVtio2hOH5do33Up9U4z9dYsxcFn8P586XclIiKSCQU5j4G7rYpaxyQXWsOzPUZKa/X6C3+/NciDm8VMLPdQREREktDdVVlhzqiY3M/mQSAYCQDKHDaC9/zRAuIaGwmSPKvHW0E25OfzmWZxRERkBVOQkyVlNSW4AbBT64wLaoD89XZzPXjqS8lP2lOeUWeTsR109A3gvXyG/YvpZh6u7wR59HG+am1ERGRFU7oqK0LcuZdPc5eLZjBuIbfc2t1zbITik1U0d5XSDExcH2WiIkG6anCKi1sdNLe46G0hwS3kK8Drj/huaT7/eVjxsYiIrGzfeK2u/q/LPYjVzfycHOvn3uQw1/EHfB8HPYf12TgiIrKy6e24pO71R3y39Gnu3lCAIyIiK5/SVZK699fwz++vWe5RiIiIpETpKhEREclJSleJiIhITlKQIyIiIjlJQY6IiIjkJAU5IiIikpMU5IiIiEhOUpAjIiIiOUlBjoiIiOQkBTmLZudEVxWHF/WlmitpP1Y2Dp90cbbN9jh3KiIikhUKckRERCQnKcgRERGRnKTvrsqWrZX0ttiNn8dG2X3MH7u+qZLeOnM9Ie4k+NZyd1sVzU7bvG3i+wsOj7C3M5RCH+a3pV/3sa6ulPxk+7COc2ySOymfABERkZVFMzlZYaN6fZALrUPsbh1loqIyto6lpoSzGx+yu3XI+Hd9luqWSjyWHozgZJYb4Tat92Grfc6eIv3V2Zm4PjQ3wFnvM8cR3o+1jsdGdQ1cNNffGLNRXW/dh50TZr+7W4e44HNQXZh4CPu7B/BePk/HzgxOl4iIyGOgICdLJgan8ALg58ZwiPz1dtzhlYNT7LXO7PQ/ZII8iiPBh51ap42J66P0RBqFON4ZNxtktj3RUgrDIxzqj11e64Q7/eFxAP2T3AnYWLc1GnBFxwk9n/jBYYuM091WSllgkhtmv97OSSbSOw0iIiIrhtJVWRFi+rPoI+8XszQ78ymztPAccVFbEbfZ88AgUGOjCD8f9bMAG9UtlUCIOzdDsatqbBRho6zFRW9L7KpgknECUBg7TnyhaJDELNMBKEowktP7Gjm90HBFRESWkYKcx8DdVkWtY5ILreFZFDsnuioz6is4PMJHjipqm0pwW2ZlDH5utFpng6zyMtqfiIjIaqV0VVbYKHo++sj9bB4EgpFUT5nDRvCePxqQ1NhiZ0cGQ0xjZ2PTQvsJcf9miJ5jo0wUllJrbT8YYjomBZY+7xezMekryKMoSU2OiIjISqcgJ0vKakrM4MCor4kJaiCmRsdTH767Kcyo4ymrsxYj2zjclqTwOGF7PzeGmVPQ7DmSxgcI9j+MCZ7cbaWxqSwLFR6LiMhKp3RVVoS4cy+f5i4XzWDcQm6566nn2AjFJ6to7iqlGZi4btyBZeXtHIG2Kpq7XNSG+zw3knSP3s77uE5WUXuyhImDRtpqbh8wcX2IQ8luQ5/Dz6HrfnrrXPTWYdxCHihlXaqbi4iIrCDfeK2u/q/LPQgRERGRbFO6SkRERHKSghwRERHJSQpyRERE/v/27jckrixP4/gz0LveKe2tlEO3sdoKlu5ItUNMNZlJNQsTZEzPshUI2RD7RfBF2ziJSNPdNBmh9cUyL1rBCU0SFjESOgNdhCUGNwRSS08iSC/MTmUIU2ODK+k1ymhrzO6kvNMV97q7MPuibv3VJJZWWufm+3lV59xzzz3lq4dzfreEIxFyAACAIxFyAACAIxFyAACAIxFyAACAIxFyAACAIxFyAACAIxFyAACAIxFysA5DPWeCGu4ytnshAABsGiEHAAA4Ev+gEwAAONIL270A2EJVGm6vlivTYWq8c0YX8wa5NTDklzfdnJtR20dm3oiO3qCaZWrB586OSy7q8mlTwTMB1d6b0slBKzM+3BXQibqELp9eUlSGes4E1FiRurYykT82o9WvSIs701wYi6t7pLh1AgDwrBFydgI74CyPxXUyExbcGjhTpfDpJUXT7SG/NBZX24gkO5BEetcJED53zrgc9yw11rkVlmXPaShYZ2jlnmm3LfWdjmfmrl1vra1+RVrKNHkprr5Yqqujq0phFbvOI+q/8pb2lc/rs8Pv6twm/mwAADwJNTk7hqXl3+e2TXVnAo4U7qqWd24mZ8fEUl/MlHyV6iicKm9cVvROQisVHgVDdkfIrdoKS7N31tmtWZehnpBbKxOzmYAjSRcHN7lOAACeIXZydoKYqdnWajW2BxVpl9Y7qvJ6DMnnV2So8OYijoHs59TuN6SYpfB+j1zJhOKxp9+aUqZdTwlFG1/ndX345vWNrx0AgCIRcnaE9DGRMkdXzUNBHSioiXlsjUwRz4lnjqxUcFRVOltfJwAAW8dx1U4TW9LJzrguT1hy2WFEkhYSllyesi1Pnzmyai32qEqSVrWcNFI7QY9RqnUCALBVhJydoNWvSK87pyNVEKyEldlliQ4uasHnz/+BvlCVhvPu24CYqdmkocaW6iKPqqR0fY2rqVY9oWxvqvC42HUeUf+VUUVvnNd7xX0DAAA2hOOqnWBkRm2tfkWG/Nm+Na9dm+runNHAUCBb72K/Gl4c+8iqaZ2jqoJXw9WUflZOjdDIjNrkVyRTP5R6hTxbP1SqdQIAsDX8GCAAAHAkjqsAAIAjEXIAAIAjEXIAAIAjEXIAAIAjEXIAAIAjEXIAAIAjEXIAAIAjEXIAAIAjEXIAAIAjEXIAAIAjEXLgQF26cONT9R/d7nUAALYTIQcAADgSIQcAADjSC9u9AJRIqErD7S7dHpOaW9x2p6nxzhldzBnW0RtUs89uJBd1+fSSonYz3BXQiTpppcKQS5YmJ1bV2OReO0+rX5HMM6SFsbi6R0rzNY71f6qOyn9T+NTgU64dUf+Vt7Sv3L746AtdfPMfNJp7Q+i8oj+pSX2ev7XunAAA52Inx1Hcam54qLbOuNo6pzSZdOtAl5G5Gu4KqOFu3L4e13iiWid63QVzJHStc0qTSUONdSu6XDhPq1+RFmncnqPt0qJ2tQQ10FowzfvnFb0xqiv9R4r6BqNLCakmoPfWXDmiH9SXK/lwXumAUz/9C4UPH1P48DF9ltirjis/07HM+HLtq0/o4uFjCh++pbmaQ0WvBQDw542Q4yiWJm+Zmc/xe5ZcnrLM1ejgVN6Oy8W7puQxFM6dImEpKksPEgWfJUmGekJuLYzl7OrElnR7TvI2FIalTZpNKCmPdh+VdPRnupIpIK5RZfkjTceuS+8f0j59oX/68HrmtnP/8oWS5XX6QU6x8dyv0js7g/ps4pEq6vfnhCAAgNNxXOUoq3oQK+jyGArLtI+k3BoY8stbMKSw/Xhl2lUheVuCirQUXJoraJ99V+GzG54469odTZ/Yq8paSfJIj6T60BFJVfIooclr0rF+j1Reo44bo+rIu/lR3ueHs9nW6FJCHU0e+QQAeF4Qcp4bhnrO+LVrYkptg1aqyz56Ko6lyUtT6isMUyVzXfcTb6m+6ojeq/Ro+lf3VP9qjVTrUcWjRDZLUWMDAHgKjqueG2XaVWFp9o6V6Qm/VPaE8etZ1XLS0K49pV1ZobmHj1RRuV+7PQndP3tH056ALrxao+T0HY3KrtvxVD3l6Knc3g1KOVblkXJDEgDA8Qg5zxVDtfvThchuNTcZTxy9lqW+mClvS0A9oWxvuCtQssJjSRqN3VOyZq/2JaZ0Ttf1m2mPfDVSYsmuwTl7S7/TXnVc6Mq5q0sX8gqPJd/fpNtd+tum8kxIAgA8Hziuem6Y6r60qOH2gCJDqfb4mClvscdVIzNqk1+R9qAi7amulYkpnSzRK+SSpGtLSvxkr/RwXpJdTyPl1Nhc14dvSv1X3lL0xiG7b16fHX43J8Q80u+mPdm6nflbCucUKgMAnO9bP2o59KftXgQAAECpcVwFAAAciZADAAAciZADAAAciZADAAAciZADAAAciZADAAAciZADAAAciZADAAAciZADAAAciZADAAAciZADAAAciZCDTXBrYCj/P5EDALDTEHIAAIAj8V/InSJUpeF2l2YnytTYZEiSViamdHLQyhlkqOdMQI0VdnNuRm0fmQUTuTUw5JfmTHl97kzvysSUTt5xa7i9Wq41Dzc13jmji6X9RgAAbMkL270AlJJbjZ4ZtXWadugJaKA1ru6R1NWO3oAatajLnUuK2mFmuKswCKV4fdJ4Z7wguFg6GVtSKghVa/nSlPpij1nK++cVfaNGyYlf6M0Pr5f2awIAsAEcVzmKpclb9s5MbEm35yRvQ3o3xq0Gn7QQW1JUkmRqfMKSq86t8DozLYyxMwMA+PPGTo6jrOpBzs7KQsKS6gyFZdrBxtLy77PXo/+5qhNNLnmfxVLOvqvw2WcxMQAAG8NODgAAcCRCjqOU6eWc17q9HkNKWPYujiQZ2rUnez38UpmUXNHCN7hCAAC+KYQcRzHUeMiuwQlV6YBPWribfnsqVYPjDVXZNThuNTcZWrln5oSg4p6VG5jWeP+8ojdGdaX/yKZmBwBgq6jJcRRTk4lqRYb8klKvfaffrJKk6OCsgmcCOjFUrRNS6hXydd6s2shzusdMRVqCirSk2rxCDgDYafidHKewfyfnNmEDAABJHFcBAACHIuQAAABH4rgKAAA4Ejs5AADAkQg5AADAkQg5AADAkQg5AADAkQg5AADAkQg5AADAkQg5AADAkQg5+GaFqjQ85FfHdq8DAOB4/INO4LGO68cHTqnByPasfHVBn0xfzXa8+HO9/VpQrsddBwBsG0IO8Bjf33tKDYrr2uc/1bwk6QMdP3hKb0t2kPlAx18L6o9fvqFPFte7DgDYToQcZIS7AjrhWdS4/Gr22Z1zM2r7yLQbbg0MVWv50pT6YnZXq1+RFmnc/u/nHb1BHfBYclUYkkxNTpSpscmQkou6fHpJUfu2l7sCijSltkhWJqZ0ctAqWI1bA0N+edPNvHWkdPQG1SxTCz53dlzBczbvuCq/Ld2fSwccSfpYs4m/0+uuPZKkmvofarcV17XF7PWrX35P7/hCqpm+mnMfAGA7UJODfD6/Gu7G1dYZV9ulRa34qtUTKm4KV2JRbZ0zWpBbjR77c0W1mlvTI9L9qWeoKaCB1twZUgFHY/Y6Oqc06fEr0uteZ73unHFxtRUEnPcujCp641P1Hy3uO0hXNfmHpHb7fq6aTN8HqvVI9//rY0nSbleFVv4Qyw8zyYdaMf5ajS8W+zwAQKkRcpAvuajxEftzzNRs0tCuPcVNsZJYlbSq5WT+5yxLk7fsXZnYkm7PSd6GbIAJd1XLOzej7pHs+L6YKfkq1xYs540rrfnpv9c//rv044M39c7Bm3rn4Pc0+/kburoopXd61vh6UX98NssBABSJ4yrkS1hrjnp2vWRIKjxO2opVPYhlWwsJS6ozFJapqCSvx5B8fkWGCu8zCzue6typYzq3yVV+f+9Nvf7tuK59/kZOTc5NNX11QZ9MZ8fV1P+zjr5SoftfpgMQAGAnIORgR1q/Tueb9IFqPUnd/W1+Tc6vv/qhjn4npJrpn+rhf59Sjewdn3ToebFafyWxmwMAOwDHVdiS8Etlm7irTC/n1Pl4PUbeDtJCwpLLs5l5S8gOK09yfyUp13dCOTU7kioq5bL+Q5NfP8O1AQA2hJCDIqxqOWmodn/6h2Pcam4ynnjH+gw1HrJrcEJVOuCTFu5mj6Kig4ta8Pk13JUzd6hKw+sVHj/FpguPv45p3qpQw6v5hcevv5ItNp6f/lfdN4J6vTp7/fh396wtRgYAbAuOq1AES30jixpuD9j1MqbGx0x5W4qdx9RkolqRIb+k1NFUfvGwqe7OGQ0MBbJ1OclFXT5dfE3O5l3VL29LOnBKRw/ezPTm/9jfx7r622q9/dpNvfPd9a4DALbTt37UcuhP270IAACAUuO4CgAAOBIhBwAAOBIhBwAAOBIhBwAAOBIhBwAAONKmXiH/v//9n1KvAwCA596DBw+2ewmOwk4OAABwJEIOAABwpE0dV73wF39Z6nUAAPDc875S8/RB2LD/ByIMcLjeF4QGAAAAAElFTkSuQmCC;" vertex="1" parent="6sAhm8Tma2SEbeLi_Sfp-53">
          <mxGeometry x="20" y="30.87" width="354.34" height="239.13" as="geometry" />
        </mxCell>
      </root>
    </mxGraphModel>
  </diagram>
</mxfile>
